<?xml version="1.0" standalone="no"?><!DOCTYPE svg PUBLIC "-//W3C//DTD SVG 1.1//EN" "http://www.w3.org/Graphics/SVG/1.1/DTD/svg11.dtd"><svg t="1723824027889" class="icon" viewBox="0 0 1024 1024" version="1.1" xmlns="http://www.w3.org/2000/svg" p-id="5514" xmlns:xlink="http://www.w3.org/1999/xlink" width="200" height="200"><path d="M747.48 733.98H276.52c-89.56 0-140.9-51.34-140.9-140.9V125.96c0-15.82 13.12-28.96 28.96-28.96h694.88c15.82 0 28.96 13.12 28.96 28.96v467.12c-0.02 89.56-51.36 140.9-140.94 140.9zM193.52 154.9v438.16c0 57.52 25.48 83 83 83h470.6c57.52 0 83-25.48 83-83V154.9H193.52z" fill="#292D32" p-id="5515"></path><path d="M898.04 154.9H125.96c-15.82 0-28.96-13.12-28.96-28.96S110.12 97 125.96 97h772.1c15.82 0 28.96 13.12 28.96 28.96s-13.14 28.94-28.98 28.94zM357.58 927c-10.8 0-20.84-5.8-25.86-15.82-7.34-14.28-1.54-31.66 13.12-39l138.2-69.1v-98.06c0-15.82 13.12-28.96 28.96-28.96 15.82 0 28.96 13.12 28.96 28.96v115.82c0 10.8-6.18 20.84-16.22 25.86l-154.42 77.2c-3.86 1.94-8.5 3.1-12.74 3.1z" fill="#292D32" p-id="5516"></path><path d="M666.42 927c-4.24 0-8.88-1.16-12.74-3.08l-154.42-77.2c-14.28-7.34-20.08-24.7-13.12-39 7.34-14.28 24.7-20.08 39-13.12l154.42 77.2c14.28 7.34 20.08 24.7 13.12 38.98-5.42 10.42-15.84 16.22-26.26 16.22z" fill="#292D32" p-id="5517"></path><path d="M338.28 502.34c-8.1 0-16.6-3.48-22.4-10.42-10.42-12.36-8.5-30.5 3.86-40.92l121.6-101.54c11.2-9.26 25.48-13.12 38.98-10.8 13.9 2.32 25.86 10.8 33.2 23.16l40.54 67.56 113.12-94.2c12.36-10.04 30.5-8.5 40.92 3.86 10.42 12.36 8.5 30.5-3.86 40.92l-121.6 101.54c-11.2 9.26-25.48 13.12-38.98 10.8-13.9-2.32-25.86-10.8-33.2-23.16l-40.54-67.56-113.12 94.2c-5.4 4.26-11.96 6.56-18.52 6.56z" fill="#F7931E" p-id="5518"></path></svg>