<?xml version="1.0" standalone="no"?><!DOCTYPE svg PUBLIC "-//W3C//DTD SVG 1.1//EN" "http://www.w3.org/Graphics/SVG/1.1/DTD/svg11.dtd"><svg t="1713676673789" class="icon" viewBox="0 0 1024 1024" version="1.1" xmlns="http://www.w3.org/2000/svg" p-id="35314" xmlns:xlink="http://www.w3.org/1999/xlink" width="200" height="200"><path d="M508.8 64c246.4 0 448 201.6 448 448s-201.6 448-448 448-448-201.6-448-448 201.6-448 448-448z" fill="#31BE9F" p-id="35315"></path><path d="M627.2 288c41.6 3.2 80 22.4 99.2 67.2 19.2 44.8 9.6 89.6-22.4 124.8l-76.8 76.8c-9.6 9.6-28.8 9.6-38.4 0-9.6-9.6-9.6-22.4 3.2-35.2 25.6-25.6 51.2-48 73.6-73.6 38.4-38.4 19.2-99.2-32-112-22.4-6.4-41.6-3.2-57.6 12.8-25.6 25.6-51.2 51.2-76.8 73.6-6.4 6.4-16 9.6-22.4 9.6-19.2 0-28.8-25.6-16-38.4l86.4-86.4c22.4-16 48-19.2 80-19.2zM284.8 620.8c0-32 12.8-60.8 35.2-83.2l73.6-73.6c12.8-12.8 25.6-12.8 35.2-3.2 9.6 9.6 9.6 22.4-3.2 35.2l-70.4 70.4c-28.8 28.8-32 70.4-3.2 96 25.6 25.6 67.2 25.6 96 0 25.6-22.4 48-48 73.6-70.4 16-12.8 38.4-9.6 41.6 9.6 0 6.4 0 16-6.4 22.4-25.6 28.8-54.4 54.4-83.2 80-35.2 32-76.8 35.2-118.4 16-44.8-16-70.4-54.4-70.4-99.2zM608 438.4c0 3.2-3.2 9.6-6.4 12.8-48 48-96 99.2-147.2 147.2-9.6 9.6-25.6 9.6-35.2 0-9.6-9.6-9.6-22.4 0-35.2l144-144c6.4-6.4 16-9.6 28.8-6.4 9.6 3.2 16 12.8 16 25.6z" fill="#FFFFFF" p-id="35316"></path></svg>