<?xml version="1.0" standalone="no"?><!DOCTYPE svg PUBLIC "-//W3C//DTD SVG 1.1//EN" "http://www.w3.org/Graphics/SVG/1.1/DTD/svg11.dtd"><svg t="1722605385809" class="icon" viewBox="0 0 1024 1024" version="1.1" xmlns="http://www.w3.org/2000/svg" p-id="6377" xmlns:xlink="http://www.w3.org/1999/xlink" width="200" height="200"><path d="M512 960c247.424 0 448-200.576 448-448S759.424 64 512 64 64 264.576 64 512s200.576 448 448 448z" fill="#FFAA46" p-id="6378"></path><path d="M278.488 586.24c-47.904-18.32-118.864-44.88-214.464-79.24a448.976 448.976 0 0 0 13.304 113.912A13432.12 13432.12 0 0 0 236.96 706.976c11.36 59.072 63.312 103.696 125.696 103.696 64.296 0 117.52-47.4 126.624-109.168 32.384-26.296 69.656-56.624 107.68-87.68 13.84 3.168 28.24 4.84 43.032 4.84 106.04 0 192-85.96 192-192s-85.96-192-192-192-192 85.96-192 192c0 20.272 3.144 39.816 8.96 58.16-21.672 27.872-41.752 53.72-58.264 74.984a128.104 128.104 0 0 0-36.032-5.136 127.504 127.504 0 0 0-84.16 31.56z m446.848-159.576C725.336 473.792 687.12 512 640 512s-85.336-38.208-85.336-85.336c0-47.12 38.208-85.328 85.336-85.328s85.336 38.2 85.336 85.328z" fill="#FFFFFF" p-id="6379"></path><path d="M512 93c-222.976 0-405.264 174.16-418.256 393.88 76.496 27.608 136.16 49.848 179.88 66.464 25.296-17.44 56-27.68 89.04-27.68 8.272 0 16.4 0.648 24.36 1.888l38.096-49.024a221.488 221.488 0 0 1-6.128-51.864c0-122.056 98.944-221 221-221s221 98.944 221 221-98.944 221-221 221c-11.968 0-23.72-0.952-35.2-2.792a50917.28 50917.28 0 0 1-88.976 72.44c-15.784 70.048-78.336 122.36-153.16 122.36-71.52 0-131.832-47.808-150.8-113.2a14430.32 14430.32 0 0 1-82.928-44.456C194.128 828.72 341.12 931 512 931c231.408 0 419-187.6 419-419 0-231.408-187.6-419-419-419zM94.6 548.864a418.48 418.48 0 0 0 8.024 52.84c51.96 28.424 103.12 55.856 147.936 79.656a29 29 0 0 1 14.88 20.136c8.776 45.68 49 80.176 97.216 80.176 49.704 0 90.896-36.656 97.936-84.4a29 29 0 0 1 10.408-18.28c32.368-26.28 69.616-56.592 107.616-87.624a29 29 0 0 1 24.816-5.808c11.728 2.68 23.96 4.104 36.56 4.104 90.024 0 163-72.976 163-163s-72.976-163-163-163-163 72.984-163 163c0 17.264 2.672 33.84 7.6 49.384a29 29 0 0 1-4.744 26.568A142166.88 142166.88 0 0 0 421.6 577.6a29 29 0 0 1-31.056 10.048 99.096 99.096 0 0 0-27.888-3.976 98.504 98.504 0 0 0-65.088 24.4 29 29 0 0 1-29.44 5.248c-40.72-15.568-98.24-37.152-173.528-64.456zM512 35c263.44 0 477 213.56 477 477S775.44 989 512 989c-263.392 0-476.92-213.472-477-476.848v-0.536C35.208 248.352 248.688 35 512 35z m71.664 391.664a56.336 56.336 0 1 1 112.672 0 56.336 56.336 0 0 1-112.672 0zM640 312.336c-63.144 0-114.336 51.184-114.336 114.328 0 63.144 51.192 114.336 114.336 114.336s114.336-51.192 114.336-114.336S703.144 312.336 640 312.336z" fill="#200000" p-id="6380"></path></svg>