<?xml version="1.0" standalone="no"?><!DOCTYPE svg PUBLIC "-//W3C//DTD SVG 1.1//EN" "http://www.w3.org/Graphics/SVG/1.1/DTD/svg11.dtd"><svg t="1767268349328" class="icon" viewBox="0 0 1025 1024" version="1.1" xmlns="http://www.w3.org/2000/svg" p-id="5965" xmlns:xlink="http://www.w3.org/1999/xlink" width="200.1953125" height="200"><path d="M169.645058 222.737483h665.030556v598.208812h-665.030556z" fill="#FFFFFF" p-id="5966"></path><path d="M679.737921 746.171317l83.918049-395.613658q5.194927-25.175415-5.994147-35.964879t-29.371317-3.996097L235.072165 500.51122q-16.583805 6.293854-22.577952 14.286048t-1.398634 15.185171 18.282147 11.089171L355.554506 580.433171 648.368555 396.213073q11.988293-7.992195 18.282146-3.496585 3.996098 2.997073-2.297756 8.59161l-236.868683 214.790243-9.191024 129.473561q13.187122 0 25.674927-12.587707l61.639805-59.342049 127.875121 94.208q36.564293 20.48 46.25483-21.678829zM1024.001726 511.700293q0 103.898537-40.560391 198.506146T874.447774 873.447024 711.207189 982.440585 512.501238 1024t-198.705951-41.459512-163.240586-108.993561T41.56114 710.206439 0.001726 511.500488t41.459512-198.705951 108.993561-163.240586T313.795287 40.56039 512.501238 0.899122t198.705951 39.661268 163.240585 108.993561 108.993561 163.240586 40.560391 198.805853z" fill="#009BDB" p-id="5967"></path></svg>