<?xml version="1.0" standalone="no"?><!DOCTYPE svg PUBLIC "-//W3C//DTD SVG 1.1//EN" "http://www.w3.org/Graphics/SVG/1.1/DTD/svg11.dtd"><svg t="1713676386207" class="icon" viewBox="0 0 1024 1024" version="1.1" xmlns="http://www.w3.org/2000/svg" p-id="17166" xmlns:xlink="http://www.w3.org/1999/xlink" width="200" height="200"><path d="M138.24 512c0 207.36 166.4 373.76 373.76 373.76S885.76 719.36 885.76 512c0-204.8-166.4-373.76-373.76-373.76S138.24 304.64 138.24 512z" fill="#FFFFFF" p-id="17167"></path><path d="M327.68 463.36l-107.52-184.32c128-161.28 363.52-189.44 524.8-58.88 35.84 28.16 66.56 64 89.6 102.4H512c-87.04 0-163.84 58.88-184.32 140.8z" fill="#DD4E41" p-id="17168"></path><path d="M645.12 376.32h215.04c17.92 43.52 25.6 89.6 25.6 135.68 0 204.8-163.84 371.2-371.2 373.76l153.6-263.68c56.32-76.8 46.08-181.76-23.04-245.76z" fill="#FFCD41" p-id="17169"></path><path d="M376.32 512c0-74.24 61.44-135.68 135.68-135.68s135.68 61.44 135.68 135.68-61.44 135.68-135.68 135.68-135.68-61.44-135.68-135.68z" fill="#4C8BF5" p-id="17170"></path><path d="M563.2 696.32l-107.52 186.88C273.92 855.04 138.24 696.32 138.24 512c0-64 15.36-128 48.64-184.32l153.6 263.68c30.72 66.56 97.28 110.08 171.52 110.08 17.92 2.56 35.84 0 51.2-5.12z" fill="#1DA362" p-id="17171"></path></svg>