<?xml version="1.0" standalone="no"?><!DOCTYPE svg PUBLIC "-//W3C//DTD SVG 1.1//EN" "http://www.w3.org/Graphics/SVG/1.1/DTD/svg11.dtd"><svg t="1729479600728" class="icon" viewBox="0 0 1024 1024" version="1.1" xmlns="http://www.w3.org/2000/svg" p-id="4720" data-spm-anchor-id="a313x.search_index.0.i1.1ce43a81BxEiQK" xmlns:xlink="http://www.w3.org/1999/xlink" width="200" height="200"><path d="M468.8384 551.9872l403.9168-405.9136-286.2592 743.168z" fill="#CAE2FF" p-id="4721"></path><path d="M582.912 938.3936c-0.8192 0-1.5872 0-2.4064-0.0512-22.9888-0.9728-42.0864-15.872-48.5888-37.9392l-94.4128-318.9248-310.9888-89.7024c-22.1184-6.4-37.12-25.344-38.2976-48.3328s11.8784-43.3664 33.2288-51.9168l730.9824-293.2736a53.0944 53.0944 0 0 1 57.1392 11.5712c15.0528 14.9504 19.7632 37.3248 12.032 57.0368L632.1664 904.704c-8.0896 20.6848-27.2384 33.6896-49.2544 33.6896zM166.9632 439.5008l291.9936 84.2752c17.4592 5.0688 30.976 18.4832 36.1472 35.8912l88.7808 299.8784 273.408-697.0368-690.3296 276.992z" fill="#5866D2" p-id="4722" data-spm-anchor-id="a313x.search_index.0.i2.1ce43a81BxEiQK"></path></svg>