<?xml version="1.0" standalone="no"?><!DOCTYPE svg PUBLIC "-//W3C//DTD SVG 1.1//EN" "http://www.w3.org/Graphics/SVG/1.1/DTD/svg11.dtd"><svg t="1719416218690" class="icon" viewBox="0 0 1024 1024" version="1.1" xmlns="http://www.w3.org/2000/svg" p-id="19662" xmlns:xlink="http://www.w3.org/1999/xlink" width="200" height="200"><path d="M744.38 173.05c18.34 18.34 18.35 48.08 0.01 66.42l-0.01 0.01-42.95 42.91h43.96c77.82 0 140.9 63.08 140.9 140.9v281.85c0 77.82-63.08 140.9-140.9 140.9H275.71c-77.82 0-140.9-63.08-140.9-140.9V423.33c0-77.82 63.08-140.9 140.9-140.9h43.81l-42.87-42.91c-18.66-18.02-19.19-47.75-1.17-66.41s47.75-19.19 66.41-1.17c0.39 0.38 0.78 0.76 1.15 1.15l99.65 99.65c2.97 2.97 5.45 6.2 7.44 9.66h120.73c1.99-3.46 4.51-6.76 7.48-9.69l99.61-99.65c18.34-18.35 48.07-18.36 66.43-0.01-0.01 0-0.01 0 0 0z m1.01 203.65H275.71c-24.59-0.01-45.03 18.95-46.86 43.47l-0.11 3.53v281.81c0 24.76 19.16 45.05 43.47 46.82l3.49 0.15h469.68c24.59 0.01 45.03-18.95 46.86-43.47l0.11-3.49V423.71c0-25.93-21.04-46.97-46.97-46.97v-0.04z m-375.74 93.94c25.93 0 46.97 21.04 46.97 46.97v46.97c0.01 25.94-21.01 46.98-46.95 46.99-25.94 0.01-46.98-21.01-46.99-46.95v-47.01c0-25.93 21.04-46.97 46.97-46.97z m281.81 0c25.93 0 46.97 21.04 46.97 46.97v46.97c0 25.94-21.03 46.97-46.97 46.97s-46.97-21.03-46.97-46.97v-46.97c0-25.93 21.04-46.97 46.97-46.97z" fill="#FB7299" p-id="19663"></path></svg>