<?xml version="1.0" standalone="no"?><!DOCTYPE svg PUBLIC "-//W3C//DTD SVG 1.1//EN" "http://www.w3.org/Graphics/SVG/1.1/DTD/svg11.dtd"><svg t="1769260949825" class="icon" viewBox="0 0 1024 1024" version="1.1" xmlns="http://www.w3.org/2000/svg" p-id="9825" xmlns:xlink="http://www.w3.org/1999/xlink" width="200" height="200"><path d="M913.731238 482.001977c32.827035 0 59.894941 23.228487 63.542389 53.111967l0.447933 7.038935v37.434338c0 162.215465-138.347075 294.035527-311.248924 300.882492l-14.077871 0.255961-435.326157-0.06399 30.395403 28.027761c25.212187 23.292477 25.596129 61.430709 0.895865 85.171118a66.997867 66.997867 0 0 1-84.403234 5.823119l-6.079081-4.927255L19.274525 867.031741a57.78326 57.78326 0 0 1-0.895865-85.171117l3.071536-2.687594 1.791729-1.91971 138.603036-127.724681a66.869886 66.869886 0 0 1 90.482314 0.895864 57.591289 57.591289 0 0 1 4.479323 79.53997l-5.439177 5.631148-26.683964 24.636274h427.711308c105.392059 0 191.01111-75.444589 197.0262-170.086275l0.319952-10.558403v-37.370347c0-33.274967 28.667664-60.278883 63.990321-60.278883zM782.80704 12.377008l6.079081 4.991245 143.530291 132.267995a57.591289 57.591289 0 0 1 4.415332 79.539969l-5.375187 5.631148-138.603036 127.788672a66.869886 66.869886 0 0 1-90.482315-0.895864 57.591289 57.591289 0 0 1-4.479322-79.53997l5.439177-5.631148 28.859635-26.683964H325.404223c-105.392059 0-191.01111 75.508579-197.0262 169.062429L128.058071 429.337943l0.639903 30.203431c0.639903 33.274967-27.387858 60.790805-62.710515 61.430709-32.827035 0.639903-60.342873-22.140651-64.630224-52.024131l-0.639903-7.038936-0.639904-31.355257c0-162.215465 138.347075-294.035527 311.248924-300.818501l14.077871-0.319952h402.17917l-28.219732-25.980071a57.78326 57.78326 0 0 1-0.959855-85.171117c20.924835-20.156951 53.111967-23.484448 77.876222-9.982491l6.527012 4.095381z" fill="#2c2c2c" p-id="9826"></path></svg>